<svg xmlns="http://www.w3.org/2000/svg" viewBox="0 0 511.999 511.999"><path d="M481.09 27.937H30.91C13.865 27.937 0 41.803 0 58.847v310.818c0 17.043 13.866 30.91 30.91 30.91h154.26v22.49c0 20.616-16.775 37.39-37.392 37.39H113.78c-6.517 0-11.802 5.284-11.802 11.803 0 6.52 5.285 11.803 11.803 11.803h284.44c6.518 0 11.803-5.28 11.803-11.8 0-6.52-5.284-11.803-11.802-11.803h-34c-20.618 0-37.392-16.774-37.392-37.39v-22.49h154.26c17.043 0 30.91-13.866 30.91-30.91V58.847c.002-17.043-13.864-30.91-30.907-30.91zm-285.17 432.52c8.046-10.336 12.857-23.308 12.857-37.39v-22.49h94.447v22.49c0 14.082 4.81 27.055 12.857 37.39H195.92zm292.474-90.79c0 4.026-3.276 7.303-7.304 7.303H30.91c-4.028 0-7.305-3.276-7.305-7.304v-62.033h464.79v62.033zm0-85.64H23.606V58.847c0-4.03 3.276-7.306 7.304-7.306h450.18c4.027 0 7.305 3.278 7.305 7.306v225.18z"/><circle cx="256.003" cy="342.305" r="12.738"/><path d="M276.238 109.254c-4.61-4.61-12.08-4.61-16.693 0l-83.414 83.414c-4.606 4.61-4.606 12.083 0 16.693 2.31 2.308 5.328 3.46 8.35 3.46 3.02 0 6.04-1.152 8.346-3.457l83.414-83.413c4.61-4.61 4.61-12.084 0-16.694zm49.44 48.34c-4.608-4.61-12.08-4.61-16.692 0l-33.23 33.226c-4.61 4.61-4.61 12.084 0 16.693 2.305 2.305 5.325 3.457 8.346 3.457 3.02 0 6.04-1.152 8.346-3.457l33.23-33.228c4.61-4.61 4.61-12.083 0-16.692z"/></svg>